<?xml version="1.0" encoding="iso-8859-1"?>
<!-- Generator: Adobe Illustrator 17.1.0, SVG Export Plug-In . SVG Version: 6.00 Build 0)  -->
<!DOCTYPE svg PUBLIC "-//W3C//DTD SVG 1.1//EN" "http://www.w3.org/Graphics/SVG/1.1/DTD/svg11.dtd">
<svg version="1.1" id="Capa_1" xmlns="http://www.w3.org/2000/svg" xmlns:xlink="http://www.w3.org/1999/xlink" x="0px" y="0px"
	 viewBox="0 0 64 64" style="enable-background:new 0 0 64 64;" xml:space="preserve">
<g>
	<path d="M48.74,4.008H30.33c-2.124,0-3.852,1.728-3.852,3.852v49.602c0,2.124,1.728,3.852,3.852,3.852h18.41
		c2.124,0,3.852-1.728,3.852-3.852V7.859C52.592,5.736,50.864,4.008,48.74,4.008z M48.74,59.812H30.33
		c-1.297,0-2.352-1.055-2.352-2.352v-0.91c0.386,1.574,1.797,2.749,3.488,2.749h4.238h7.443h4.24c1.987,0,3.604-1.616,3.604-3.603
		V45.185v-7.065c0-0.276-0.224-0.5-0.5-0.5h-7.344h-7.443h-7.34c-0.16,0-0.295,0.079-0.387,0.195V7.859
		c0-1.297,1.055-2.352,2.352-2.352h18.41c1.297,0,2.352,1.055,2.352,2.352v49.602C51.092,58.758,50.037,59.812,48.74,59.812z
		 M42.648,38.619v2.687c-0.078,0.088-0.129,0.201-0.129,0.328s0.051,0.24,0.129,0.328v2.723h-6.443v-3.051v-3.015H42.648z
		 M49.992,38.619v2.515h-6.344v-2.515H49.992z M36.205,58.3v-2.79h6.443v2.79H36.205z M31.467,58.3
		c-1.435,0-2.602-1.168-2.602-2.603V55.51h6.34v2.79H31.467z M43.648,42.134h6.344v2.551h-6.344V42.134z M49.992,51.234h-6.344
		v-2.276h6.344V51.234z M42.648,51.234h-6.443v-2.276h6.443V51.234z M28.865,48.958h6.34v2.276h-6.34V48.958z M35.205,47.958h-6.34
		v-2.273h6.34V47.958z M28.865,52.234h6.34v2.275h-6.34V52.234z M36.205,52.234h6.443v2.275h-6.443V52.234z M43.648,52.234h6.344
		v2.275h-6.344V52.234z M49.992,45.685v2.273h-6.344v-2.273H49.992z M42.648,47.958h-6.443v-2.273h6.443V47.958z M35.205,44.685
		h-6.34v-2.551h6.34V44.685z M43.648,55.51h6.344v0.188c0,1.435-1.168,2.603-2.604,2.603h-3.74V55.51z M35.205,41.134h-6.34v-2.515
		h6.34V41.134z"/>
	<path d="M49.045,11.564H30.123c-0.276,0-0.5,0.224-0.5,0.5v23.678c0,0.276,0.224,0.5,0.5,0.5h18.922c0.276,0,0.5-0.224,0.5-0.5
		V12.064C49.545,11.788,49.321,11.564,49.045,11.564z M48.545,35.242H30.623V12.564h17.922V35.242z"/>
	<path d="M38.914,44.461h0.93c1.302,0,2.361-1.06,2.361-2.361v-0.932c0-1.302-1.06-2.361-2.361-2.361h-0.93
		c-1.302,0-2.361,1.06-2.361,2.361V42.1C36.553,43.401,37.612,44.461,38.914,44.461z M37.553,41.168c0-0.751,0.61-1.361,1.361-1.361
		h0.93c0.751,0,1.361,0.61,1.361,1.361V42.1c0,0.751-0.61,1.361-1.361,1.361h-0.93c-0.751,0-1.361-0.61-1.361-1.361V41.168z"/>
	<path d="M30.482,40.53h2.533c0.276,0,0.5-0.224,0.5-0.5s-0.224-0.5-0.5-0.5h-2.533c-0.276,0-0.5,0.224-0.5,0.5
		S30.206,40.53,30.482,40.53z"/>
	<path d="M45.732,40.53h2.533c0.276,0,0.5-0.224,0.5-0.5s-0.224-0.5-0.5-0.5h-2.533c-0.276,0-0.5,0.224-0.5,0.5
		S45.456,40.53,45.732,40.53z"/>
	<path d="M30.378,44.242c0.272,0.055,0.535-0.115,0.594-0.385l0.074-0.425c0.048-0.055,0.28-0.161,0.599-0.161
		c0.386,0,0.669,0.149,0.703,0.184l0.207,0.492c0.08,0.19,0.266,0.306,0.461,0.306c0.064,0,0.131-0.013,0.194-0.039
		c0.254-0.107,0.374-0.4,0.267-0.655l-0.208-0.494c-0.233-0.545-1.005-0.793-1.624-0.793c-0.656,0-1.42,0.277-1.548,0.888
		l-0.104,0.489C29.936,43.919,30.108,44.185,30.378,44.242z"/>
	<path d="M48.52,43.067c-0.229-0.547-1.002-0.796-1.623-0.796c-0.653,0-1.417,0.276-1.55,0.888l-0.104,0.489
		c-0.058,0.271,0.115,0.536,0.385,0.594c0.267,0.053,0.52-0.109,0.586-0.367c0.061,0.387,0.382,0.69,0.786,0.69
		c0.397,0,0.713-0.293,0.782-0.671l0.023,0.054c0.08,0.19,0.266,0.306,0.461,0.306c0.064,0,0.131-0.013,0.194-0.039
		c0.254-0.107,0.374-0.4,0.267-0.655L48.52,43.067z M46.811,43.753c0-0.104,0.085-0.188,0.189-0.188s0.189,0.085,0.189,0.188
		C47.189,43.962,46.811,43.962,46.811,43.753z"/>
	<path d="M36.846,7.963h5.166c0.276,0,0.5-0.224,0.5-0.5s-0.224-0.5-0.5-0.5h-5.166c-0.276,0-0.5,0.224-0.5,0.5
		S36.569,7.963,36.846,7.963z"/>
</g>
</svg>
